<svg width="48" height="48" viewBox="0 0 48 48" fill="none" xmlns="http://www.w3.org/2000/svg">
<mask id="mask0_25_903" style="mask-type:alpha" maskUnits="userSpaceOnUse" x="0" y="0" width="48" height="48">
<rect width="48" height="48" fill="#D9D9D9"/>
</mask>
<g mask="url(#mask0_25_903)">
<path d="M16 42V38H20V34H8C6.9 34 5.95833 33.6083 5.175 32.825C4.39167 32.0417 4 31.1 4 30V10C4 8.9 4.39167 7.95833 5.175 7.175C5.95833 6.39167 6.9 6 8 6H40C41.1 6 42.0417 6.39167 42.825 7.175C43.6083 7.95833 44 8.9 44 10V30C44 31.1 43.6083 32.0417 42.825 32.825C42.0417 33.6083 41.1 34 40 34H28V38H32V42H16ZM8 30H40V10H8V30Z" fill="#DD1B57"/>
</g>
</svg>
