<svg width="40" height="38" viewBox="0 0 40 38" fill="none" xmlns="http://www.w3.org/2000/svg">
<path d="M4 38C2.9 38 1.95833 37.6083 1.175 36.825C0.391667 36.0417 0 35.1 0 34V12C0 10.9 0.391667 9.95833 1.175 9.175C1.95833 8.39167 2.9 8 4 8H12V4C12 2.9 12.3917 1.95833 13.175 1.175C13.9583 0.391667 14.9 0 16 0H24C25.1 0 26.0417 0.391667 26.825 1.175C27.6083 1.95833 28 2.9 28 4V8H36C37.1 8 38.0417 8.39167 38.825 9.175C39.6083 9.95833 40 10.9 40 12V34C40 35.1 39.6083 36.0417 38.825 36.825C38.0417 37.6083 37.1 38 36 38H4ZM16 8H24V4H16V8Z" fill="#DD1B57"/>
</svg>
